<svg width="37" height="36" viewBox="0 0 37 36" fill="none" xmlns="http://www.w3.org/2000/svg">
<path opacity="0.2" d="M18.4998 4.8951H18.4998C19.6064 4.8951 20.6677 5.3347 21.4501 6.11718C22.2326 6.89966 22.6722 7.96093 22.6722 9.06752V18C22.6722 19.1066 22.2326 20.1679 21.4501 20.9503C20.6677 21.7328 19.6064 22.1724 18.4998 22.1724C17.9519 22.1724 17.4093 22.0645 16.9031 21.8548C16.3969 21.6451 15.9369 21.3378 15.5495 20.9504C15.162 20.5629 14.8547 20.103 14.645 19.5967L13.3492 20.1335L14.645 19.5967C14.4353 19.0905 14.3274 18.5479 14.3274 18V9.0675C14.3274 7.96092 14.767 6.89965 15.5495 6.11717C16.3319 5.33469 17.3932 4.8951 18.4998 4.8951Z" fill="white" stroke="white" stroke-width="2.82079"/>
<path d="M18.4998 3.48471H18.4998C19.9805 3.48471 21.4005 4.0729 22.4474 5.11988C23.4944 6.16686 24.0826 7.58687 24.0826 9.06752V18C24.0826 19.4807 23.4944 20.9007 22.4474 21.9476C21.4005 22.9946 19.9805 23.5828 18.4998 23.5828H18.4998C17.7666 23.5828 17.0407 23.4384 16.3633 23.1579C15.686 22.8773 15.0706 22.4661 14.5522 21.9477C14.0337 21.4292 13.6225 20.8138 13.342 20.1365C13.0614 19.4591 12.917 18.7332 12.917 18V9.0675C12.917 7.58686 13.5052 6.16685 14.5522 5.11987C15.5991 4.0729 17.0191 3.48471 18.4998 3.48471V3.48471Z" stroke="white" stroke-width="2.82079" stroke-linecap="round" stroke-linejoin="round"/>
<path d="M18.5 28.0491V32.5153" stroke="white" stroke-width="2.82079" stroke-linecap="round" stroke-linejoin="round"/>
<path d="M28.4872 19.1166C28.2123 21.5732 27.0417 23.8423 25.1991 25.4902C23.3566 27.138 20.9714 28.0491 18.4994 28.049C16.0275 28.049 13.6423 27.138 11.7997 25.4902C9.9572 23.8423 8.7866 21.5732 8.51172 19.1166" stroke="white" stroke-width="2.82079" stroke-linecap="round" stroke-linejoin="round"/>
</svg>
